<svg version="1.1" id="Layer_1" xmlns="http://www.w3.org/2000/svg" xmlns:xlink="http://www.w3.org/1999/xlink" x="0px" y="0px"
	 width="100%" viewBox="0 0 366 385" enable-background="new 0 0 366 385" xml:space="preserve">
<path fill="#010102" opacity="1.000000" stroke="none" 
	d="
M245.000000,386.000000 
	C163.333344,386.000000 82.166695,386.000000 1.000033,386.000000 
	C1.000022,257.666718 1.000022,129.333405 1.000011,1.000084 
	C122.999939,1.000056 244.999878,1.000056 366.999878,1.000028 
	C366.999908,129.333252 366.999908,257.666504 366.999939,385.999878 
	C326.500000,386.000000 286.000000,386.000000 245.000000,386.000000 
M128.342987,228.688583 
	C128.342987,228.688583 128.567627,228.270676 128.567627,228.270676 
	C128.567627,228.270676 128.275696,227.896683 128.585129,227.348236 
	C128.662201,227.152985 128.739258,226.957733 129.472916,226.532196 
	C130.938583,222.681061 132.404266,218.829941 134.115005,214.315643 
	C135.888702,211.184372 137.857971,208.146591 139.406342,204.907608 
	C158.094177,165.815170 176.730484,126.698097 195.356003,87.575912 
	C202.038254,73.540115 208.655426,59.473331 215.415512,45.181358 
	C210.732895,44.825562 206.367065,44.493839 201.101044,44.022774 
	C189.384171,44.013210 177.667313,43.999168 165.950439,43.995316 
	C153.961899,43.991375 141.972458,43.929638 129.986099,44.092281 
	C128.620178,44.110817 127.271660,45.412209 125.517387,46.681965 
	C118.199265,61.903465 110.871376,77.120277 103.566460,92.348114 
	C98.694122,102.504982 93.854500,112.677559 88.402283,123.232132 
	C86.359688,127.875191 84.317101,132.518250 82.211349,137.165863 
	C82.211349,137.165863 82.218704,137.228775 81.553192,137.232712 
	C81.490280,137.367142 81.357513,137.514008 81.378784,137.633453 
	C81.425117,137.893784 81.549881,138.140137 81.525726,138.763214 
	C81.525726,138.763214 81.309395,139.086487 80.581650,139.219620 
	C78.842911,142.551941 76.939346,145.811035 75.416183,149.239151 
	C74.136948,152.118286 73.300964,155.194366 72.113083,158.054825 
	C72.113083,158.054825 72.234558,158.215958 71.531158,158.309814 
	C71.122322,159.608215 70.713486,160.906631 70.225945,162.182938 
	C70.225945,162.182938 70.243813,162.262711 69.524414,162.285736 
	C67.722443,166.555008 65.920479,170.824280 64.021080,174.993195 
	C64.021080,174.993195 64.126770,175.090439 63.506805,175.193634 
	C63.331295,175.777695 63.155785,176.361740 62.446350,177.296967 
	C62.351017,177.913269 62.255684,178.529587 62.021267,179.015381 
	C62.021267,179.015381 62.179993,179.121140 61.517723,179.256561 
	C61.456577,179.896637 61.395432,180.536697 61.283047,181.207535 
	C61.283047,181.207535 61.253353,181.259399 60.529613,181.254425 
	C57.420422,188.227463 54.311226,195.200516 51.018597,201.992279 
	C51.018597,201.992279 51.208603,202.170074 50.491974,202.262146 
	C48.989788,205.851257 47.487602,209.440384 45.998611,212.987335 
	C45.998611,212.987335 46.041832,212.996460 45.324772,213.104141 
	C44.627666,214.841156 43.930565,216.578186 43.180897,218.616135 
	C43.180897,218.616135 43.060555,218.896927 42.392300,219.079681 
	C42.358658,219.495712 42.325012,219.911758 42.277000,220.653030 
	C42.277000,220.653030 42.223049,220.974075 41.546638,221.258224 
	C41.152660,222.584335 40.758682,223.910461 40.305984,225.256714 
	C40.305984,225.256714 40.288296,225.316223 39.565262,225.279175 
	C37.435146,230.229782 35.305027,235.180405 33.050350,239.982513 
	C33.050350,239.982513 33.186272,240.126190 32.539124,240.230057 
	C32.363129,240.845383 32.187134,241.460693 31.431875,242.456238 
	C28.350801,249.118729 25.631695,255.982895 22.069309,262.377228 
	C19.419682,267.133209 19.689333,270.973572 23.301800,275.352386 
	C23.403383,275.484680 23.504965,275.616943 23.465139,276.494446 
	C26.026817,281.582916 28.588493,286.671417 31.115889,291.875916 
	C31.115889,291.875916 31.235912,291.891052 31.212105,292.553802 
	C31.858297,293.655396 32.504490,294.757019 33.297039,296.386444 
	C33.392227,296.542236 33.487419,296.698059 33.394123,297.298706 
	C33.485130,297.660675 33.716724,297.854340 34.048470,297.952209 
	C34.048470,297.952209 34.131493,297.953125 34.139839,298.601837 
	C34.509026,299.121002 34.878212,299.640137 35.569782,300.475159 
	C35.569782,300.475159 35.860161,300.820709 35.425392,301.354156 
	C36.012360,302.494202 36.599327,303.634277 37.768105,305.236816 
	C40.645100,311.516815 43.498722,317.807617 46.404041,324.074493 
	C52.093513,336.346863 57.811832,348.605896 63.901154,361.693512 
	C65.301826,359.811188 66.327354,358.814697 66.900887,357.604034 
	C73.572403,343.521118 80.228119,329.430115 86.754524,315.279633 
	C88.115929,312.327850 88.932632,309.124786 90.584602,305.666687 
	C92.720284,301.438629 94.855965,297.210602 96.997040,292.997314 
	C96.997040,292.997314 96.981766,292.998688 97.541039,292.732086 
	C97.689857,292.147949 97.838676,291.563812 97.998436,290.996643 
	C97.998436,290.996643 97.979492,290.993652 98.527657,290.714935 
	C98.662231,290.129333 98.796806,289.543701 99.001671,288.994965 
	C99.001671,288.994965 98.938805,288.945404 99.483444,288.674622 
	C99.639557,288.106598 99.795670,287.538544 100.001343,286.997009 
	C100.001343,286.997009 99.955917,286.961823 100.483849,286.669250 
	C100.629074,286.098969 100.774300,285.528656 101.000488,284.987518 
	C101.000488,284.987518 100.934319,284.932373 101.413345,284.737671 
	C101.470627,284.423218 101.527901,284.108795 101.804848,283.402252 
	C101.804848,283.402252 101.895653,282.962067 102.385605,282.756989 
	C102.431946,282.436707 102.478287,282.116425 102.756409,281.383148 
	C102.756409,281.383148 102.875008,280.924652 103.387505,280.619995 
	C103.549690,280.067474 103.711868,279.514923 103.955597,278.958252 
	C103.955597,278.958252 103.915329,278.887238 104.374481,278.716248 
	C104.682709,278.434540 104.692139,278.143097 104.688934,277.379730 
	C104.747208,277.208130 104.805481,277.036560 105.359047,276.731171 
	C105.386490,276.427704 105.413940,276.124207 105.704765,275.377960 
	C105.753677,275.213318 105.802582,275.048706 106.406693,274.651581 
	C106.505821,274.071228 106.604958,273.490906 106.858086,272.899872 
	C106.858086,272.899872 106.847137,272.745880 107.501129,272.530731 
	C110.915604,264.988037 114.330078,257.445343 117.892441,249.871460 
	C117.892441,249.871460 117.860291,249.723785 118.301781,249.672897 
	C118.301781,249.672897 118.502335,249.276062 118.502335,249.276062 
	C118.502335,249.276062 118.192039,248.957779 118.527855,248.369080 
	C118.626015,248.165604 118.724174,247.962143 119.476051,247.525909 
	C121.594673,242.654953 123.713303,237.783981 125.915184,232.919601 
	C125.915184,232.919601 125.896820,232.838150 126.386162,232.724777 
	C126.440239,232.626755 126.548599,232.521896 126.537270,232.432129 
	C126.512436,232.235397 126.426964,232.046326 126.642212,231.346771 
	C126.702820,231.164047 126.763435,230.981308 127.369209,230.603470 
	C127.483078,230.049759 127.596947,229.496063 127.870148,228.910141 
	C127.870148,228.910141 127.873154,228.747620 128.342987,228.688583 
M231.951935,207.940887 
	C231.951935,207.940887 231.922180,207.780777 232.460144,207.606506 
	C232.565857,207.068390 232.671570,206.530258 232.956009,205.925156 
	C232.956009,205.925156 232.906250,205.740891 233.394150,205.515305 
	C233.515335,205.002060 233.636520,204.488815 233.939484,203.934601 
	C233.939484,203.934601 233.908798,203.750824 234.462982,203.455200 
	C234.904327,202.286011 235.345688,201.116821 235.951416,199.933548 
	C235.951416,199.933548 235.928818,199.770111 236.354446,199.693985 
	C236.354446,199.693985 236.578644,199.323364 236.578644,199.323364 
	C236.578644,199.323364 236.336441,198.964188 236.691177,198.383789 
	C236.758682,198.167313 236.826187,197.950851 237.393448,197.535049 
	C237.491089,197.015610 237.588730,196.496185 237.898285,195.934402 
	C237.898285,195.934402 237.901901,195.718307 238.522507,195.463364 
	C239.864426,192.660263 241.218323,189.862823 242.546005,187.052994 
	C246.204529,179.310425 249.852036,171.562653 253.781082,163.334259 
	C253.817902,163.152405 253.854706,162.970551 254.427322,162.561386 
	C254.529068,162.006042 254.630814,161.450699 255.057495,160.270752 
	C263.148865,144.252594 271.240234,128.234421 279.562225,111.759689 
	C277.138306,111.267914 275.712158,110.765823 274.270996,110.718124 
	C252.964371,110.012924 231.651276,109.477699 210.351654,108.609558 
	C206.436783,108.449989 204.518494,110.515121 203.222321,113.269348 
	C198.518829,123.263550 194.138794,133.409363 189.550110,143.458420 
	C186.826889,149.422211 183.941376,155.311920 180.479904,161.474701 
	C180.027969,163.000427 179.576050,164.526154 179.032852,166.039017 
	C179.032852,166.039017 179.097290,166.104919 178.492767,166.437546 
	C178.133728,167.385620 177.774689,168.333694 177.241608,169.675674 
	C177.241608,169.675674 177.154556,170.097427 176.595795,170.341995 
	C176.460190,170.918076 176.324585,171.494171 176.095123,172.081177 
	C176.095123,172.081177 176.125198,172.170731 175.660675,172.298340 
	C175.660675,172.298340 175.435852,172.725555 175.435852,172.725555 
	C175.435852,172.725555 175.694519,173.133209 175.388580,173.650421 
	C175.323944,173.840027 175.259308,174.029633 174.556946,174.481262 
	C173.451797,177.027512 172.346649,179.573746 171.018494,182.835617 
	C170.073425,184.249252 168.913269,185.565109 168.218811,187.092667 
	C164.229065,195.868576 160.493576,204.762070 156.404846,213.490585 
	C145.865906,235.988937 135.120361,258.390656 124.621162,280.907349 
	C122.535698,285.379883 120.888374,289.803314 114.706726,289.228424 
	C114.022781,289.164795 113.269196,289.849884 112.154839,290.371857 
	C123.411552,316.262268 134.605484,342.008270 146.153366,368.568329 
	C148.368622,367.469910 150.724152,366.301941 153.798218,365.025269 
	C158.880295,361.686310 160.033264,356.126831 161.899490,350.897156 
	C161.899490,350.897156 161.875885,350.779358 162.488739,350.549316 
	C162.924255,349.340332 163.359787,348.131348 163.916321,346.906036 
	C163.916321,346.906036 163.884766,346.788086 164.345383,346.697083 
	C164.345383,346.697083 164.567322,346.282288 164.567322,346.282288 
	C164.567322,346.282288 164.288757,345.903168 164.599487,345.359924 
	C164.675537,345.165680 164.751572,344.971405 165.391602,344.619141 
	C165.505981,344.059662 165.620361,343.500183 165.884735,342.912994 
	C165.884735,342.912994 165.865814,342.761658 166.419876,342.541473 
	C166.501358,341.967377 166.582855,341.393250 166.859543,340.438324 
	C166.859543,340.438324 166.932190,340.016602 167.460770,339.695343 
	C167.639450,339.125916 167.818146,338.556519 167.997559,337.997955 
	C167.997559,337.997955 167.988419,338.002716 168.472717,337.776184 
	C168.524216,337.451935 168.575714,337.127655 168.823547,336.412628 
	C168.823547,336.412628 168.903259,335.982635 169.448151,335.691650 
	C169.618179,335.117676 169.788223,334.543701 170.000000,334.000000 
	C170.000000,334.000000 169.959503,333.967010 170.491165,333.677124 
	C170.639786,333.105957 170.788406,332.534760 171.002335,331.993561 
	C171.002335,331.993561 170.945236,331.948761 171.476898,331.664917 
	C171.636505,331.101471 171.796097,330.537994 172.001556,329.997009 
	C172.001556,329.997009 171.961441,329.963806 172.507156,329.696350 
	C172.634552,329.115479 172.761932,328.534607 172.977783,327.973206 
	C172.977783,327.973206 172.922562,327.901398 173.468124,327.651672 
	C173.618774,327.088501 173.769409,326.525360 174.000122,325.984680 
	C174.000122,325.984680 173.935776,325.931915 174.387619,325.724426 
	C174.687958,325.459778 174.734543,325.156097 174.771927,324.409088 
	C174.771927,324.409088 174.890579,323.951691 175.463943,323.592041 
	C175.911713,321.691833 176.359482,319.791656 177.168503,317.274567 
	C179.577454,313.248108 182.270279,309.362152 184.344772,305.170197 
	C192.107056,289.485016 199.670120,273.701233 207.302002,257.951538 
	C215.202393,241.647705 223.095947,225.340546 231.446991,208.826614 
	C231.778778,208.623856 231.893204,208.335083 231.951935,207.940887 
M275.988800,268.003357 
	C275.988800,268.003357 275.881622,267.929260 276.486542,267.716675 
	C276.612549,267.110809 276.738556,266.504913 276.980347,266.009766 
	C276.980347,266.009766 276.856232,265.904022 277.472809,265.748077 
	C277.462341,265.364685 277.451874,264.981323 277.588104,264.298828 
	C277.588104,264.298828 277.781128,264.027344 278.408997,263.798950 
	C278.438538,263.394257 278.468048,262.989563 278.616699,262.302734 
	C278.616699,262.302734 278.773712,262.039795 279.404846,261.794922 
	C279.579590,261.172577 279.754333,260.550262 279.987549,259.998199 
	C279.987549,259.998199 279.905701,259.957397 280.490173,259.744568 
	C280.509796,259.361694 280.529419,258.978790 280.663086,258.307404 
	C280.663086,258.307404 280.805481,258.031769 281.446625,257.809540 
	C281.600311,257.181030 281.754028,256.552521 281.985504,256.005188 
	C281.985504,256.005188 281.890747,255.944351 282.471191,255.729019 
	C282.481415,255.348511 282.491638,254.968002 282.633575,254.310608 
	C282.633575,254.310608 282.800751,254.053543 283.434906,253.809219 
	C283.477631,253.394989 283.520325,252.980774 283.675568,252.318985 
	C283.675568,252.318985 283.819977,252.088608 284.443848,251.816162 
	C284.493561,251.399887 284.543243,250.983612 284.692261,250.330933 
	C284.692261,250.330933 284.824097,250.110992 285.475464,249.847061 
	C285.520752,249.419067 285.566010,248.991058 285.707001,248.318344 
	C285.707001,248.318344 285.827850,248.085007 286.419800,247.799973 
	C286.461823,247.398300 286.503815,246.996643 286.675110,246.318878 
	C286.675110,246.318878 286.832214,246.057602 287.461395,245.815201 
	C287.516327,245.403351 287.571289,244.991501 287.727509,244.331589 
	C287.727509,244.331589 287.847107,244.091827 288.433075,243.796616 
	C288.489441,243.393646 288.545807,242.990692 288.965851,241.992340 
	C302.510010,215.473877 316.054199,188.955429 329.882202,161.881256 
	C328.040192,161.595596 326.811920,161.281113 325.573151,161.232376 
	C314.648438,160.802582 303.721619,160.425476 292.796051,160.017044 
	C291.315186,159.961685 289.802032,159.990067 288.363922,159.690872 
	C275.173157,156.946823 272.768677,158.067261 267.085419,169.776596 
	C267.012787,169.926178 266.916290,170.064056 266.841583,170.212769 
	C255.704712,192.385300 244.466827,214.507889 233.465973,236.747726 
	C225.071060,253.719284 217.180023,270.942749 208.609924,287.823212 
	C206.375214,292.224854 206.266769,299.537994 197.066071,297.971893 
	C205.875671,319.202362 214.296539,339.496002 222.669037,359.673065 
	C230.277206,357.625397 230.326111,357.649719 233.219864,351.828674 
	C237.038361,344.147369 240.770676,336.423187 245.268097,328.819824 
	C245.459854,328.170837 245.651611,327.521881 245.988846,327.003326 
	C245.988846,327.003326 245.833054,326.884613 246.460861,326.708466 
	C246.572891,326.091614 246.684921,325.474731 246.990112,324.962891 
	C246.990112,324.962891 246.809204,324.837433 247.437363,324.748169 
	C247.496948,324.619812 247.620377,324.481934 247.602966,324.365051 
	C247.565369,324.112976 247.455414,323.871674 247.513428,323.274628 
	C247.513428,323.274628 247.726685,322.963013 248.400406,322.806946 
	C248.549576,322.164001 248.698746,321.521088 248.988663,321.005463 
	C248.988663,321.005463 248.841965,320.881683 249.458282,320.729401 
	C249.487320,320.339050 249.516342,319.948730 249.649155,319.303101 
	C249.649155,319.303101 249.786743,319.064270 250.424973,318.816559 
	C250.461502,318.400940 250.498032,317.985352 250.642868,317.296509 
	C250.642868,317.296509 250.789017,317.041534 251.439529,316.820618 
	C251.466248,316.405701 251.492950,315.990753 251.621262,315.282837 
	C251.621262,315.282837 251.760345,315.005646 252.366928,314.777863 
	C252.384460,314.388275 252.402008,313.998657 252.574097,313.296356 
	C252.574097,313.296356 252.772766,313.009644 253.428268,312.803345 
	C253.492172,312.384369 253.556076,311.965424 253.698013,311.317200 
	C253.698013,311.317200 253.797668,311.096497 254.409073,310.804810 
	C254.578400,310.177307 254.747726,309.549774 254.982986,309.005432 
	C254.982986,309.005432 254.897049,308.942932 255.501907,308.751038 
	C255.531921,308.359406 255.561951,307.967743 255.691864,307.312714 
	C255.691864,307.312714 255.815140,307.059357 256.440826,306.809204 
	C256.487762,306.398163 256.534668,305.987122 256.698578,305.312561 
	C256.698578,305.312561 256.836395,305.059296 257.437378,304.785339 
	C257.508575,304.379303 257.579742,303.973267 257.739746,303.347626 
	C257.739746,303.347626 257.841248,303.133575 258.423615,302.803406 
	C258.483978,302.390930 258.544342,301.978455 258.712708,301.333313 
	C258.712708,301.333313 258.841309,301.111389 259.465118,300.833008 
	C259.619690,300.198181 259.774292,299.563354 259.989685,299.001465 
	C259.989685,299.001465 259.909760,298.950043 260.530457,298.769745 
	C260.671478,298.159821 260.812500,297.549927 260.994690,296.997284 
	C260.994690,296.997284 260.928680,296.972382 261.467163,296.817780 
	C261.576691,296.489075 261.686218,296.160400 261.973846,296.009399 
	C261.973846,296.009399 261.803925,295.827179 262.540771,295.912842 
	C262.594788,295.221954 262.648834,294.531067 262.767975,293.841492 
	C262.767975,293.841492 262.763245,293.776550 263.441498,293.737305 
	C263.533936,293.092346 263.626404,292.447388 263.851471,291.930908 
	C263.851471,291.930908 263.760864,291.770020 264.445496,291.750763 
	C264.531342,291.105743 264.617157,290.460693 264.753876,289.796112 
	C264.753876,289.796112 264.769104,289.743774 265.405609,289.738617 
	C265.468384,289.611267 265.599091,289.472473 265.579987,289.358917 
	C265.538208,289.110413 265.420319,288.874695 265.450104,288.210632 
	C265.450104,288.210632 265.646545,287.818146 266.351624,287.784546 
	C266.494019,287.141785 266.636444,286.499054 266.995667,285.948273 
	C266.995667,285.948273 266.787811,285.836090 267.460968,285.740143 
	C267.508331,285.101166 267.555695,284.462189 267.670624,283.756104 
	C267.670624,283.756104 267.732666,283.683868 268.444305,283.711273 
	C268.875214,282.413147 269.306091,281.115051 269.827118,279.841248 
	C269.827118,279.841248 269.785065,279.757935 270.429901,279.739929 
	C270.432617,279.355408 270.435333,278.970886 270.557190,278.268219 
	C270.557190,278.268219 270.729797,277.975677 271.415131,277.813263 
	C271.518188,277.147156 271.621246,276.481079 271.806213,275.855469 
	C271.806213,275.855469 271.783813,275.766876 272.424469,275.746246 
	C272.427216,275.365875 272.429962,274.985504 272.555237,274.247162 
	C272.555237,274.247162 272.730957,273.912079 273.383911,273.788177 
	C273.379364,273.399139 273.374786,273.010101 273.514679,272.249207 
	C273.514679,272.249207 273.731415,271.914368 274.363220,271.765503 
	C274.384613,271.377991 274.406006,270.990479 274.566376,270.290771 
	C274.566376,270.290771 274.742920,269.998169 275.382080,269.777679 
	C275.553162,269.156128 275.724243,268.534576 275.988800,268.003357 
z"/>
<path fill="#FCFCFD" opacity="1.000000" stroke="none" 
	d="
M23.606548,275.749207 
	C23.504965,275.616943 23.403383,275.484680 23.256245,274.700806 
	C20.936514,269.233826 22.249619,264.952026 24.599998,260.461792 
	C27.728355,254.485306 30.253176,248.192886 33.131790,241.718872 
	C33.212967,240.976440 33.199619,240.551315 33.186272,240.126190 
	C33.186272,240.126190 33.050350,239.982513 33.445362,239.950684 
	C35.989681,235.051315 38.138988,230.183777 40.288300,225.316223 
	C40.288296,225.316223 40.305984,225.256714 40.662308,225.125214 
	C41.420101,223.653839 41.821575,222.313965 42.223049,220.974075 
	C42.223049,220.974075 42.277000,220.653030 42.538101,220.330307 
	C42.886314,219.637360 42.973434,219.267151 43.060555,218.896927 
	C43.060555,218.896927 43.180897,218.616135 43.537590,218.340561 
	C44.610130,216.375473 45.325977,214.685959 46.041828,212.996460 
	C46.041832,212.996460 45.998611,212.987335 46.345688,212.961487 
	C48.198048,209.347122 49.703323,205.758606 51.208603,202.170074 
	C51.208603,202.170074 51.018597,201.992279 51.452782,202.018967 
	C55.009094,195.116898 58.131226,188.188156 61.253353,181.259399 
	C61.253353,181.259399 61.283047,181.207535 61.614220,181.080368 
	C62.023594,180.342514 62.101791,179.731827 62.179993,179.121140 
	C62.179993,179.121140 62.021267,179.015381 62.349205,179.102020 
	C62.823177,178.885345 62.969215,178.582047 63.372608,178.036682 
	C63.795563,176.893219 63.961166,175.991821 64.126770,175.090439 
	C64.126770,175.090439 64.021080,174.993195 64.408722,174.954254 
	C66.612183,170.697800 68.428001,166.480255 70.243820,162.262711 
	C70.243813,162.262711 70.225945,162.182938 70.594307,162.110962 
	C71.386635,160.764633 71.810593,159.490295 72.234558,158.215958 
	C72.234558,158.215958 72.113083,158.054825 72.518402,157.998917 
	C75.718948,151.657501 78.514175,145.371994 81.309402,139.086487 
	C81.309395,139.086487 81.525726,138.763214 81.829285,138.474640 
	C82.161453,137.866959 82.190079,137.547867 82.218704,137.228775 
	C82.218704,137.228775 82.211349,137.165863 82.565926,137.042145 
	C84.947075,132.226639 86.973656,127.534874 89.000237,122.843109 
	C93.854500,112.677559 98.694122,102.504982 103.566460,92.348114 
	C110.871376,77.120277 118.199265,61.903465 126.073044,46.144604 
	C128.412109,45.401672 130.195145,45.020920 131.978973,45.017204 
	C153.593094,44.972145 175.207397,45.001240 196.821472,44.943466 
	C198.548752,44.938850 200.274689,44.434326 202.001251,44.162113 
	C206.367065,44.493839 210.732895,44.825562 215.415512,45.181358 
	C208.655426,59.473331 202.038254,73.540115 195.356003,87.575912 
	C176.730484,126.698097 158.094177,165.815170 139.406342,204.907608 
	C137.857971,208.146591 135.888702,211.184372 133.748474,214.882721 
	C131.860062,219.220688 130.338196,222.991592 128.816330,226.762497 
	C128.739258,226.957733 128.662201,227.152985 128.240082,227.684464 
	C127.671806,228.256760 127.664513,228.499069 127.873154,228.747620 
	C127.873154,228.747620 127.870148,228.910141 127.504883,229.012100 
	C127.034431,229.675568 126.929245,230.237061 126.824066,230.798569 
	C126.763435,230.981308 126.702820,231.164047 126.301460,231.683121 
	C125.747620,232.277557 125.726326,232.550461 125.896820,232.838150 
	C125.896820,232.838150 125.915184,232.919601 125.529877,232.963257 
	C123.037155,237.924179 120.929749,242.841415 118.822342,247.758667 
	C118.724174,247.962143 118.626015,248.165604 118.187592,248.720215 
	C117.644859,249.293243 117.649178,249.510727 117.860291,249.723785 
	C117.860291,249.723785 117.892441,249.871460 117.480629,249.938477 
	C113.661591,257.585632 110.254364,265.165741 106.847137,272.745880 
	C106.847137,272.745880 106.858086,272.899872 106.497742,273.020142 
	C106.042107,273.721619 105.946800,274.302856 105.851494,274.884094 
	C105.802582,275.048706 105.753677,275.213318 105.348450,275.679321 
	C104.739670,276.245148 104.696877,276.539917 104.863754,276.864990 
	C104.805481,277.036560 104.747208,277.208130 104.330460,277.699463 
	C103.745041,278.295166 103.726151,278.584503 103.915329,278.887238 
	C103.915329,278.887238 103.955597,278.958252 103.623810,279.070404 
	C103.153015,279.763245 103.014015,280.343964 102.875008,280.924652 
	C102.875008,280.924652 102.756409,281.383148 102.399429,281.686310 
	C101.993515,282.313660 101.944580,282.637878 101.895653,282.962067 
	C101.895653,282.962067 101.804848,283.402252 101.456299,283.692078 
	C101.049942,284.298706 100.992134,284.615540 100.934319,284.932373 
	C100.934319,284.932373 101.000488,284.987518 100.673447,285.097656 
	C100.216248,285.792450 100.086090,286.377136 99.955917,286.961823 
	C99.955917,286.961823 100.001343,286.997009 99.700821,287.120056 
	C99.246460,287.810516 99.092636,288.377960 98.938805,288.945404 
	C98.938805,288.945404 99.001671,288.994965 98.678528,289.105560 
	C98.230087,289.808655 98.104790,290.401154 97.979492,290.993652 
	C97.979492,290.993652 97.998436,290.996643 97.722214,291.139893 
	C97.291252,291.855011 97.136505,292.426849 96.981766,292.998688 
	C96.981766,292.998688 96.997040,292.997314 96.695740,293.170044 
	C94.263077,297.574371 92.131714,301.805969 90.000359,306.037537 
	C88.932632,309.124786 88.115929,312.327850 86.754524,315.279633 
	C80.228119,329.430115 73.572403,343.521118 66.900887,357.604034 
	C66.327354,358.814697 65.301826,359.811188 63.901154,361.693512 
	C57.811832,348.605896 52.093513,336.346863 46.404041,324.074493 
	C43.498722,317.807617 40.645100,311.516815 37.504673,304.665710 
	C36.780880,303.003296 36.320518,301.912018 35.860161,300.820709 
	C35.860161,300.820709 35.569782,300.475159 35.428329,300.041748 
	C34.901749,299.056580 34.516621,298.504852 34.131493,297.953125 
	C34.131493,297.953125 34.048470,297.952209 34.127415,297.693665 
	C34.160500,297.067505 33.952579,296.873779 33.582607,296.853851 
	C33.487419,296.698059 33.392227,296.542236 33.278885,295.767334 
	C32.585785,294.062469 31.910847,292.976776 31.235909,291.891052 
	C31.235912,291.891052 31.115889,291.875916 31.192299,291.440979 
	C28.714655,285.920441 26.160601,280.834839 23.606548,275.749207 
z"/>
<path fill="#FBFBFD" opacity="1.000000" stroke="none" 
	d="
M166.932190,340.016602 
	C166.932190,340.016602 166.859543,340.438324 166.501022,340.770813 
	C166.050278,341.656097 165.958054,342.208862 165.865814,342.761658 
	C165.865814,342.761658 165.884735,342.912994 165.525620,343.013611 
	C165.053528,343.668518 164.940552,344.222839 164.827591,344.777161 
	C164.751572,344.971405 164.675537,345.165680 164.251068,345.700684 
	C163.677856,346.285278 163.671890,346.534180 163.884766,346.788086 
	C163.884766,346.788086 163.916321,346.906036 163.517853,346.962677 
	C162.704880,348.272644 162.290375,349.526001 161.875885,350.779358 
	C161.875885,350.779358 161.899490,350.897156 161.498047,350.951874 
	C158.424301,355.715729 155.752014,360.424866 153.079697,365.133972 
	C150.724152,366.301941 148.368622,367.469910 146.153366,368.568329 
	C134.605484,342.008270 123.411552,316.262268 112.154839,290.371857 
	C113.269196,289.849884 114.022781,289.164795 114.706726,289.228424 
	C120.888374,289.803314 122.535698,285.379883 124.621162,280.907349 
	C135.120361,258.390656 145.865906,235.988937 156.404846,213.490585 
	C160.493576,204.762070 164.229065,195.868576 168.218811,187.092667 
	C168.913269,185.565109 170.073425,184.249252 171.461609,182.396408 
	C173.001373,179.377869 174.098038,176.798553 175.194687,174.219223 
	C175.259308,174.029633 175.323944,173.840027 175.742798,173.311050 
	C176.317108,172.711884 176.326508,172.444901 176.125198,172.170731 
	C176.125198,172.170731 176.095123,172.081177 176.438049,171.970581 
	C176.905502,171.272461 177.030029,170.684937 177.154541,170.097427 
	C177.154556,170.097427 177.241608,169.675674 177.638809,169.360962 
	C178.389771,168.065811 178.743530,167.085358 179.097290,166.104919 
	C179.097290,166.104919 179.032852,166.039017 179.395401,165.906891 
	C180.214920,164.261505 180.671875,162.748215 181.128830,161.234940 
	C183.941376,155.311920 186.826889,149.422211 189.550110,143.458420 
	C194.138794,133.409363 198.518829,123.263550 203.222321,113.269348 
	C204.518494,110.515121 206.436783,108.449989 210.351654,108.609558 
	C231.651276,109.477699 252.964371,110.012924 274.270996,110.718124 
	C275.712158,110.765823 277.138306,111.267914 279.562225,111.759689 
	C271.240234,128.234421 263.148865,144.252594 254.645447,160.728012 
	C254.119446,161.719757 254.005478,162.254242 253.891510,162.788712 
	C253.854706,162.970551 253.817902,163.152405 253.324966,163.676880 
	C250.393234,168.513733 247.666397,172.890961 245.504883,177.531509 
	C242.732758,183.483017 240.415268,189.646286 237.901901,195.718307 
	C237.901901,195.718307 237.898285,195.934402 237.530701,196.050171 
	C237.073288,196.688766 236.983475,197.211578 236.893677,197.734390 
	C236.826187,197.950851 236.758682,198.167313 236.335739,198.730591 
	C235.786285,199.295303 235.769119,199.526199 235.928818,199.770111 
	C235.928818,199.770111 235.951416,199.933548 235.531433,199.980820 
	C234.710556,201.268997 234.309677,202.509918 233.908798,203.750824 
	C233.908798,203.750824 233.939484,203.934601 233.584412,204.052078 
	C233.121628,204.693329 233.013947,205.217117 232.906250,205.740891 
	C232.906250,205.740891 232.956009,205.925156 232.605225,206.061890 
	C232.143692,206.726013 232.032944,207.253387 231.922180,207.780777 
	C231.922180,207.780777 231.951935,207.940887 231.625488,208.019638 
	C231.196869,208.410538 231.094681,208.722687 230.992493,209.034836 
	C223.095947,225.340546 215.202393,241.647705 207.302002,257.951538 
	C199.670120,273.701233 192.107056,289.485016 184.344772,305.170197 
	C182.270279,309.362152 179.577454,313.248108 176.659836,317.764160 
	C175.730972,320.153076 175.310776,322.052399 174.890594,323.951691 
	C174.890579,323.951691 174.771927,324.409088 174.418335,324.704193 
	C173.822021,325.282715 173.779037,325.593567 173.935776,325.931915 
	C173.935776,325.931915 174.000122,325.984680 173.681213,326.096375 
	C173.215729,326.772522 173.069138,327.336975 172.922562,327.901398 
	C172.922562,327.901398 172.977783,327.973206 172.642578,328.081726 
	C172.192062,328.781403 172.076752,329.372620 171.961441,329.963806 
	C171.961441,329.963806 172.001556,329.997009 171.699524,330.116699 
	C171.246735,330.807190 171.095993,331.377991 170.945251,331.948761 
	C170.945236,331.948761 171.002335,331.993561 170.686569,332.107971 
	C170.233704,332.803925 170.096603,333.385468 169.959503,333.967010 
	C169.959503,333.967010 170.000000,334.000000 169.697113,334.124268 
	C169.230576,334.826569 169.066910,335.404602 168.903259,335.982635 
	C168.903259,335.982635 168.823547,336.412628 168.489578,336.719391 
	C168.099884,337.351685 168.044144,337.677185 167.988403,338.002716 
	C167.988419,338.002716 167.997559,337.997955 167.729065,338.152222 
	C167.284454,338.876526 167.108322,339.446564 166.932190,340.016602 
z"/>
<path fill="#FAFAFC" opacity="1.000000" stroke="none" 
	d="
M258.841309,301.111389 
	C258.841309,301.111389 258.712708,301.333313 258.375549,301.612030 
	C257.972687,302.305023 257.906982,302.719299 257.841248,303.133575 
	C257.841248,303.133575 257.739746,303.347626 257.410522,303.601746 
	C256.999634,304.257019 256.917999,304.658142 256.836395,305.059296 
	C256.836395,305.059296 256.698578,305.312561 256.357300,305.588745 
	C255.949051,306.263092 255.882095,306.661224 255.815155,307.059357 
	C255.815140,307.059357 255.691864,307.312714 255.378448,307.576965 
	C255.009048,308.208435 254.953049,308.575684 254.897049,308.942932 
	C254.897049,308.942932 254.982986,309.005432 254.621094,309.072754 
	C254.105377,309.792236 253.951523,310.444366 253.797668,311.096497 
	C253.797668,311.096497 253.698013,311.317200 253.369995,311.568481 
	C252.952225,312.216400 252.862503,312.613037 252.772766,313.009644 
	C252.772766,313.009644 252.574097,313.296356 252.234070,313.593079 
	C251.849487,314.261719 251.804901,314.633698 251.760330,315.005646 
	C251.760345,315.005646 251.621262,315.282837 251.302216,315.581665 
	C250.918442,316.267487 250.853729,316.654510 250.789017,317.041534 
	C250.789017,317.041534 250.642868,317.296509 250.307129,317.580139 
	C249.909851,318.263947 249.848297,318.664093 249.786743,319.064270 
	C249.786743,319.064270 249.649155,319.303101 249.326416,319.547272 
	C248.949768,320.154846 248.895859,320.518280 248.841965,320.881683 
	C248.841965,320.881683 248.988663,321.005463 248.595367,321.037170 
	C248.043625,321.700226 247.885162,322.331635 247.726685,322.963013 
	C247.726685,322.963013 247.513428,323.274628 247.202164,323.567352 
	C246.863663,324.185852 246.836426,324.511658 246.809204,324.837433 
	C246.809204,324.837433 246.990112,324.962891 246.582092,325.006195 
	C246.060394,325.661194 245.946716,326.272919 245.833054,326.884613 
	C245.833054,326.884613 245.988846,327.003326 245.610413,327.005157 
	C245.001343,327.577118 244.770691,328.147278 244.540039,328.717407 
	C240.770676,336.423187 237.038361,344.147369 233.219864,351.828674 
	C230.326111,357.649719 230.277206,357.625397 222.669037,359.673065 
	C214.296539,339.496002 205.875671,319.202362 197.066071,297.971893 
	C206.266769,299.537994 206.375214,292.224854 208.609924,287.823212 
	C217.180023,270.942749 225.071060,253.719284 233.465973,236.747726 
	C244.466827,214.507889 255.704712,192.385300 266.841583,170.212769 
	C266.916290,170.064056 267.012787,169.926178 267.085419,169.776596 
	C272.768677,158.067261 275.173157,156.946823 288.363922,159.690872 
	C289.802032,159.990067 291.315186,159.961685 292.796051,160.017044 
	C303.721619,160.425476 314.648438,160.802582 325.573151,161.232376 
	C326.811920,161.281113 328.040192,161.595596 329.882202,161.881256 
	C316.054199,188.955429 302.510010,215.473877 288.512634,242.447388 
	C287.988647,243.298904 287.917877,243.695358 287.847107,244.091827 
	C287.847107,244.091827 287.727509,244.331589 287.405853,244.608612 
	C287.000214,245.276276 286.916199,245.666946 286.832214,246.057602 
	C286.832214,246.057602 286.675110,246.318878 286.342407,246.612137 
	C285.949097,247.298599 285.888458,247.691803 285.827850,248.085007 
	C285.827850,248.085007 285.707001,248.318344 285.385193,248.607025 
	C284.983643,249.300797 284.903870,249.705887 284.824097,250.110992 
	C284.824097,250.110992 284.692261,250.330933 284.371460,250.610321 
	C283.973755,251.289352 283.896851,251.688980 283.819977,252.088608 
	C283.819977,252.088608 283.675568,252.318985 283.350830,252.598801 
	C282.950989,253.270248 282.875854,253.661896 282.800720,254.053543 
	C282.800751,254.053543 282.633575,254.310608 282.309662,254.584274 
	C281.954102,255.220078 281.922424,255.582214 281.890747,255.944351 
	C281.890747,255.944351 281.985504,256.005188 281.635864,256.081299 
	C281.126007,256.782166 280.965729,257.406952 280.805481,258.031769 
	C280.805481,258.031769 280.663086,258.307404 280.347229,258.585602 
	C279.989502,259.228333 279.947601,259.592865 279.905701,259.957397 
	C279.905701,259.957397 279.987549,259.998199 279.641724,260.076355 
	C279.121857,260.782928 278.947784,261.411377 278.773743,262.039795 
	C278.773712,262.039795 278.616699,262.302734 278.293762,262.591553 
	C277.907593,263.262665 277.844360,263.645020 277.781128,264.027344 
	C277.781128,264.027344 277.588104,264.298828 277.263733,264.579102 
	C276.911652,265.207611 276.883942,265.555817 276.856232,265.904022 
	C276.856232,265.904022 276.980347,266.009766 276.610229,266.049469 
	C276.120636,266.702545 276.001129,267.315887 275.881592,267.929260 
	C275.881622,267.929260 275.988800,268.003357 275.620544,268.059113 
	C275.082520,268.742645 274.912720,269.370392 274.742920,269.998169 
	C274.742920,269.998169 274.566376,270.290771 274.237183,270.569855 
	C273.849121,271.204071 273.790283,271.559235 273.731415,271.914368 
	C273.731415,271.914368 273.514679,272.249207 273.192017,272.562256 
	C272.823212,273.220886 272.777069,273.566467 272.730957,273.912079 
	C272.730957,273.912079 272.555237,274.247162 272.252625,274.529449 
	C271.894623,275.130127 271.839233,275.448486 271.783813,275.766876 
	C271.783813,275.766876 271.806213,275.855469 271.445984,275.950317 
	C270.967102,276.688690 270.848450,277.332184 270.729797,277.975677 
	C270.729797,277.975677 270.557190,278.268219 270.245117,278.526642 
	C269.883728,279.109344 269.834412,279.433655 269.785065,279.757935 
	C269.785065,279.757935 269.827118,279.841248 269.452637,279.894043 
	C268.629639,281.192535 268.181152,282.438202 267.732666,283.683868 
	C267.732666,283.683868 267.670624,283.756104 267.343018,283.910339 
	C266.939545,284.655060 266.863678,285.245575 266.787811,285.836090 
	C266.787811,285.836090 266.995667,285.948273 266.569641,285.983459 
	C265.977905,286.618469 265.812225,287.218292 265.646545,287.818146 
	C265.646545,287.818146 265.450104,288.210632 265.154694,288.515594 
	C264.829224,289.128296 264.799164,289.436035 264.769104,289.743774 
	C264.769104,289.743774 264.753876,289.796112 264.427948,289.901123 
	C263.988281,290.594086 263.874573,291.182037 263.760864,291.770020 
	C263.760864,291.770020 263.851471,291.930908 263.475037,291.956055 
	C262.986847,292.579681 262.875031,293.178101 262.763245,293.776550 
	C262.763245,293.776550 262.767975,293.841492 262.420197,293.937439 
	C261.982941,294.631317 261.893433,295.229248 261.803925,295.827179 
	C261.803925,295.827179 261.973846,296.009399 261.578369,295.917145 
	C261.098145,296.207397 261.013397,296.589874 260.928680,296.972382 
	C260.928680,296.972382 260.994690,296.997284 260.673523,297.078369 
	C260.204803,297.756348 260.057281,298.353180 259.909760,298.950043 
	C259.909760,298.950043 259.989685,299.001465 259.644592,299.087402 
	C259.146759,299.819366 258.994019,300.465363 258.841309,301.111389 
z"/>
<path fill="#6766C4" opacity="1.000000" stroke="none" 
	d="
M201.551147,44.092445 
	C200.274689,44.434326 198.548752,44.938850 196.821472,44.943466 
	C175.207397,45.001240 153.593094,44.972145 131.978973,45.017204 
	C130.195145,45.020920 128.412109,45.401672 126.271896,45.863003 
	C127.271660,45.412209 128.620178,44.110817 129.986099,44.092281 
	C141.972458,43.929638 153.961899,43.991375 165.950439,43.995316 
	C177.667313,43.999168 189.384171,44.013210 201.551147,44.092445 
z"/>
<path fill="#B0AEE2" opacity="1.000000" stroke="none" 
	d="
M33.037262,242.036194 
	C30.253176,248.192886 27.728355,254.485306 24.599998,260.461792 
	C22.249619,264.952026 20.936514,269.233826 23.175308,274.464050 
	C19.689333,270.973572 19.419682,267.133209 22.069309,262.377228 
	C25.631695,255.982895 28.350801,249.118729 31.979408,242.283875 
	C32.697052,242.086380 32.867157,242.061279 33.037262,242.036194 
z"/>
<path fill="#C5C4EB" opacity="1.000000" stroke="none" 
	d="
M238.212204,195.590836 
	C240.415268,189.646286 242.732758,183.483017 245.504883,177.531509 
	C247.666397,172.890961 250.393234,168.513733 253.186371,163.918213 
	C249.852036,171.562653 246.204529,179.310425 242.546005,187.052994 
	C241.218323,189.862823 239.864426,192.660263 238.212204,195.590836 
z"/>
<path fill="#AEAEE3" opacity="1.000000" stroke="none" 
	d="
M107.174133,272.638306 
	C110.254364,265.165741 113.661591,257.585632 117.406693,249.954071 
	C114.330078,257.445343 110.915604,264.988037 107.174133,272.638306 
z"/>
<path fill="#6B67BF" opacity="1.000000" stroke="none" 
	d="
M60.891483,181.256912 
	C58.131226,188.188156 55.009094,195.116898 51.544498,202.109604 
	C54.311226,195.200516 57.420422,188.227463 60.891483,181.256912 
z"/>
<path fill="#6B69BA" opacity="1.000000" stroke="none" 
	d="
M80.945526,139.153046 
	C78.514175,145.371994 75.718948,151.657501 72.596222,158.063126 
	C73.300964,155.194366 74.136948,152.118286 75.416183,149.239151 
	C76.939346,145.811035 78.842911,142.551941 80.945526,139.153046 
z"/>
<path fill="#B1AFE4" opacity="1.000000" stroke="none" 
	d="
M153.438965,365.079620 
	C155.752014,360.424866 158.424301,355.715729 161.438049,350.954590 
	C160.033264,356.126831 158.880295,361.686310 153.438965,365.079620 
z"/>
<path fill="#B0AEE2" opacity="1.000000" stroke="none" 
	d="
M23.535843,276.121826 
	C26.160601,280.834839 28.714655,285.920441 31.209440,291.382996 
	C28.588493,286.671417 26.026817,281.582916 23.535843,276.121826 
z"/>
<path fill="#AEAEE3" opacity="1.000000" stroke="none" 
	d="
M119.149193,247.642288 
	C120.929749,242.841415 123.037155,237.924179 125.488251,232.959976 
	C123.713303,237.783981 121.594673,242.654953 119.149193,247.642288 
z"/>
<path fill="#6B67BF" opacity="1.000000" stroke="none" 
	d="
M39.926781,225.297699 
	C38.138988,230.183777 35.989681,235.051315 33.507645,240.024933 
	C35.305027,235.180405 37.435146,230.229782 39.926781,225.297699 
z"/>
<path fill="#6B69BA" opacity="1.000000" stroke="none" 
	d="
M88.701263,123.037613 
	C86.973656,127.534874 84.947075,132.226639 82.597504,137.039856 
	C84.317101,132.518250 86.359688,127.875191 88.701263,123.037613 
z"/>
<path fill="#6B69BA" opacity="1.000000" stroke="none" 
	d="
M69.884117,162.274231 
	C68.428001,166.480255 66.612183,170.697800 64.457436,175.004440 
	C65.920479,170.824280 67.722443,166.555008 69.884117,162.274231 
z"/>
<path fill="#AEAEE3" opacity="1.000000" stroke="none" 
	d="
M129.144623,226.647339 
	C130.338196,222.991592 131.860062,219.220688 133.625931,215.214294 
	C132.404266,218.829941 130.938583,222.681061 129.144623,226.647339 
z"/>
<path fill="#AEAEE3" opacity="1.000000" stroke="none" 
	d="
M90.292480,305.852112 
	C92.131714,301.805969 94.263077,297.574371 96.693039,293.162659 
	C94.855965,297.210602 92.720284,301.438629 90.292480,305.852112 
z"/>
<path fill="#6B67BF" opacity="1.000000" stroke="none" 
	d="
M50.850288,202.216110 
	C49.703323,205.758606 48.198048,209.347122 46.339092,212.982574 
	C47.487602,209.440384 48.989788,205.851257 50.850288,202.216110 
z"/>
<path fill="#AAA7E1" opacity="1.000000" stroke="none" 
	d="
M174.875824,174.350250 
	C174.098038,176.798553 173.001373,179.377869 171.573120,182.038605 
	C172.346649,179.573746 173.451797,177.027512 174.875824,174.350250 
z"/>
<path fill="#B1AFE4" opacity="1.000000" stroke="none" 
	d="
M175.177277,323.771851 
	C175.310776,322.052399 175.730972,320.153076 176.479202,318.072632 
	C176.359482,319.791656 175.911713,321.691833 175.177277,323.771851 
z"/>
<path fill="#6B67BF" opacity="1.000000" stroke="none" 
	d="
M45.683296,213.050293 
	C45.325977,214.685959 44.610130,216.375473 43.563873,218.190094 
	C43.930565,216.578186 44.627666,214.841156 45.683296,213.050293 
z"/>
<path fill="#AAA7E1" opacity="1.000000" stroke="none" 
	d="
M180.804367,161.354828 
	C180.671875,162.748215 180.214920,164.261505 179.441040,165.913330 
	C179.576050,164.526154 180.027969,163.000427 180.804367,161.354828 
z"/>
<path fill="#6B67BF" opacity="1.000000" stroke="none" 
	d="
M41.884842,221.116150 
	C41.821575,222.313965 41.420101,223.653839 40.691666,225.115143 
	C40.758682,223.910461 41.152660,222.584335 41.884842,221.116150 
z"/>
<path fill="#C5C4EB" opacity="1.000000" stroke="none" 
	d="
M234.185883,203.603012 
	C234.309677,202.509918 234.710556,201.268997 235.449234,199.987854 
	C235.345688,201.116821 234.904327,202.286011 234.185883,203.603012 
z"/>
<path fill="#6B69BA" opacity="1.000000" stroke="none" 
	d="
M71.882858,158.262878 
	C71.810593,159.490295 71.386635,160.764633 70.633659,162.122009 
	C70.713486,160.906631 71.122322,159.608215 71.882858,158.262878 
z"/>
<path fill="#6F6CBE" opacity="1.000000" stroke="none" 
	d="
M268.088501,283.697571 
	C268.181152,282.438202 268.629639,281.192535 269.407532,279.881897 
	C269.306091,281.115051 268.875214,282.413147 268.088501,283.697571 
z"/>
<path fill="#B0AEE2" opacity="1.000000" stroke="none" 
	d="
M31.224007,292.222412 
	C31.910847,292.976776 32.585785,294.062469 33.205704,295.503418 
	C32.504490,294.757019 31.858297,293.655396 31.224007,292.222412 
z"/>
<path fill="#B0AEE2" opacity="1.000000" stroke="none" 
	d="
M35.642776,301.087433 
	C36.320518,301.912018 36.780880,303.003296 37.213768,304.434448 
	C36.599327,303.634277 36.012360,302.494202 35.642776,301.087433 
z"/>
<path fill="#B1AFE4" opacity="1.000000" stroke="none" 
	d="
M162.182312,350.664337 
	C162.290375,349.526001 162.704880,348.272644 163.457367,346.970825 
	C163.359787,348.131348 162.924255,349.340332 162.182312,350.664337 
z"/>
<path fill="#AAA7E1" opacity="1.000000" stroke="none" 
	d="
M178.795029,166.271240 
	C178.743530,167.085358 178.389771,168.065811 177.725830,169.164001 
	C177.774689,168.333694 178.133728,167.385620 178.795029,166.271240 
z"/>
<path fill="#6B69BA" opacity="1.000000" stroke="none" 
	d="
M63.816784,175.142029 
	C63.961166,175.991821 63.795563,176.893219 63.332764,177.704010 
	C63.017136,177.390869 62.998703,177.168335 62.980274,176.945801 
	C63.155785,176.361740 63.331295,175.777695 63.816784,175.142029 
z"/>
<path fill="#B0AEE2" opacity="1.000000" stroke="none" 
	d="
M34.135666,298.277466 
	C34.516621,298.504852 34.901749,299.056580 35.267136,299.883789 
	C34.878212,299.640137 34.509026,299.121002 34.135666,298.277466 
z"/>
<path fill="#6B67BF" opacity="1.000000" stroke="none" 
	d="
M62.713310,177.121384 
	C62.998703,177.168335 63.017136,177.390869 63.075409,177.946075 
	C62.969215,178.582047 62.823177,178.885345 62.418747,179.167267 
	C62.255684,178.529587 62.351017,177.913269 62.713310,177.121384 
z"/>
<path fill="#AEAEE3" opacity="1.000000" stroke="none" 
	d="
M103.131256,280.772339 
	C103.014015,280.343964 103.153015,279.763245 103.583038,279.072479 
	C103.711868,279.514923 103.549690,280.067474 103.131256,280.772339 
z"/>
<path fill="#C5C4EB" opacity="1.000000" stroke="none" 
	d="
M237.143555,197.634720 
	C236.983475,197.211578 237.073288,196.688766 237.424744,196.071350 
	C237.588730,196.496185 237.491089,197.015610 237.143555,197.634720 
z"/>
<path fill="#6F6CBE" opacity="1.000000" stroke="none" 
	d="
M267.124390,285.788116 
	C266.863678,285.245575 266.939545,284.655060 267.309265,283.943878 
	C267.555695,284.462189 267.508331,285.101166 267.124390,285.788116 
z"/>
<path fill="#AEAEE3" opacity="1.000000" stroke="none" 
	d="
M100.219887,286.815552 
	C100.086090,286.377136 100.216248,285.792450 100.632965,285.083069 
	C100.774300,285.528656 100.629074,286.098969 100.219887,286.815552 
z"/>
<path fill="#6F6CBE" opacity="1.000000" stroke="none" 
	d="
M265.999084,287.801331 
	C265.812225,287.218292 265.977905,286.618469 266.461243,285.937439 
	C266.636444,286.499054 266.494019,287.141785 265.999084,287.801331 
z"/>
<path fill="#AEAEE3" opacity="1.000000" stroke="none" 
	d="
M99.211121,288.809998 
	C99.092636,288.377960 99.246460,287.810516 99.676041,287.106812 
	C99.795670,287.538544 99.639557,288.106598 99.211121,288.809998 
z"/>
<path fill="#6F6CBE" opacity="1.000000" stroke="none" 
	d="
M264.103180,291.760376 
	C263.874573,291.182037 263.988281,290.594086 264.402527,289.910889 
	C264.617157,290.460693 264.531342,291.105743 264.103180,291.760376 
z"/>
<path fill="#AEAEE3" opacity="1.000000" stroke="none" 
	d="
M97.261398,292.865387 
	C97.136505,292.426849 97.291252,291.855011 97.716743,291.131409 
	C97.838676,291.563812 97.689857,292.147949 97.261398,292.865387 
z"/>
<path fill="#C5C4EB" opacity="1.000000" stroke="none" 
	d="
M254.159424,162.675049 
	C254.005478,162.254242 254.119446,161.719757 254.482971,161.040314 
	C254.630814,161.450699 254.529068,162.006042 254.159424,162.675049 
z"/>
<path fill="#6F6CBE" opacity="1.000000" stroke="none" 
	d="
M263.102356,293.756927 
	C262.875031,293.178101 262.986847,292.579681 263.408752,291.891846 
	C263.626404,292.447388 263.533936,293.092346 263.102356,293.756927 
z"/>
<path fill="#6B67BF" opacity="1.000000" stroke="none" 
	d="
M61.848854,179.188843 
	C62.101791,179.731827 62.023594,180.342514 61.639839,181.064987 
	C61.395432,180.536697 61.456577,179.896637 61.848854,179.188843 
z"/>
<path fill="#6F6CBE" opacity="1.000000" stroke="none" 
	d="
M262.172363,295.869995 
	C261.893433,295.229248 261.982941,294.631317 262.387634,293.936768 
	C262.648834,294.531067 262.594788,295.221954 262.172363,295.869995 
z"/>
<path fill="#6F6CBE" opacity="1.000000" stroke="none" 
	d="
M260.220093,298.859894 
	C260.057281,298.353180 260.204803,297.756348 260.652924,297.049744 
	C260.812500,297.549927 260.671478,298.159821 260.220093,298.859894 
z"/>
<path fill="#6F6CBE" opacity="1.000000" stroke="none" 
	d="
M259.153198,300.972198 
	C258.994019,300.465363 259.146759,299.819366 259.614197,299.050934 
	C259.774292,299.563354 259.619690,300.198181 259.153198,300.972198 
z"/>
<path fill="#AEAEE3" opacity="1.000000" stroke="none" 
	d="
M98.253571,290.854309 
	C98.104790,290.401154 98.230087,289.808655 98.643387,289.087128 
	C98.796806,289.543701 98.662231,290.129333 98.253571,290.854309 
z"/>
<path fill="#6F6CBE" opacity="1.000000" stroke="none" 
	d="
M254.103378,310.950653 
	C253.951523,310.444366 254.105377,309.792236 254.588135,309.031189 
	C254.747726,309.549774 254.578400,310.177307 254.103378,310.950653 
z"/>
<path fill="#6F6CBE" opacity="1.000000" stroke="none" 
	d="
M248.063538,322.884979 
	C247.885162,322.331635 248.043625,321.700226 248.525009,320.973511 
	C248.698746,321.521088 248.549576,322.164001 248.063538,322.884979 
z"/>
<path fill="#6F6CBE" opacity="1.000000" stroke="none" 
	d="
M246.146957,326.796539 
	C245.946716,326.272919 246.060394,325.661194 246.485504,324.953674 
	C246.684921,325.474731 246.572891,326.091614 246.146957,326.796539 
z"/>
<path fill="#B1AFE4" opacity="1.000000" stroke="none" 
	d="
M173.195343,327.776550 
	C173.069138,327.336975 173.215729,326.772522 173.641190,326.085144 
	C173.769409,326.525360 173.618774,327.088501 173.195343,327.776550 
z"/>
<path fill="#6F6CBE" opacity="1.000000" stroke="none" 
	d="
M244.904053,328.768616 
	C244.770691,328.147278 245.001343,327.577118 245.537674,326.939941 
	C245.651611,327.521881 245.459854,328.170837 244.904053,328.768616 
z"/>
<path fill="#B1AFE4" opacity="1.000000" stroke="none" 
	d="
M172.234299,329.830078 
	C172.076752,329.372620 172.192062,328.781403 172.598358,328.071960 
	C172.761932,328.534607 172.634552,329.115479 172.234299,329.830078 
z"/>
<path fill="#B1AFE4" opacity="1.000000" stroke="none" 
	d="
M171.211075,331.806824 
	C171.095993,331.377991 171.246735,330.807190 171.676590,330.105469 
	C171.796097,330.537994 171.636505,331.101471 171.211075,331.806824 
z"/>
<path fill="#B1AFE4" opacity="1.000000" stroke="none" 
	d="
M170.225342,333.822083 
	C170.096603,333.385468 170.233704,332.803925 170.653915,332.092987 
	C170.788406,332.534760 170.639786,333.105957 170.225342,333.822083 
z"/>
<path fill="#B1AFE4" opacity="1.000000" stroke="none" 
	d="
M169.175705,335.837158 
	C169.066910,335.404602 169.230576,334.826569 169.676239,334.109131 
	C169.788223,334.543701 169.618179,335.117676 169.175705,335.837158 
z"/>
<path fill="#B1AFE4" opacity="1.000000" stroke="none" 
	d="
M167.196472,339.855957 
	C167.108322,339.446564 167.284454,338.876526 167.728699,338.146790 
	C167.818146,338.556519 167.639450,339.125916 167.196472,339.855957 
z"/>
<path fill="#B1AFE4" opacity="1.000000" stroke="none" 
	d="
M166.142853,342.651550 
	C165.958054,342.208862 166.050278,341.656097 166.403412,340.961243 
	C166.582855,341.393250 166.501358,341.967377 166.142853,342.651550 
z"/>
<path fill="#B1AFE4" opacity="1.000000" stroke="none" 
	d="
M165.109589,344.698151 
	C164.940552,344.222839 165.053528,343.668518 165.450623,343.027466 
	C165.620361,343.500183 165.505981,344.059662 165.109589,344.698151 
z"/>
<path fill="#AAA7E1" opacity="1.000000" stroke="none" 
	d="
M176.875168,170.219711 
	C177.030029,170.684937 176.905502,171.272461 176.484970,171.965118 
	C176.324585,171.494171 176.460190,170.918076 176.875168,170.219711 
z"/>
<path fill="#6F6CBE" opacity="1.000000" stroke="none" 
	d="
M271.072449,277.894470 
	C270.848450,277.332184 270.967102,276.688690 271.405029,275.930084 
	C271.621246,276.481079 271.518188,277.147156 271.072449,277.894470 
z"/>
<path fill="#6F6CBE" opacity="1.000000" stroke="none" 
	d="
M281.126038,257.920654 
	C280.965729,257.406952 281.126007,256.782166 281.596985,256.040710 
	C281.754028,256.552521 281.600311,257.181030 281.126038,257.920654 
z"/>
<path fill="#6F6CBE" opacity="1.000000" stroke="none" 
	d="
M279.089294,261.917358 
	C278.947784,261.411377 279.121857,260.782928 279.612488,260.041199 
	C279.754333,260.550262 279.579590,261.172577 279.089294,261.917358 
z"/>
<path fill="#6F6CBE" opacity="1.000000" stroke="none" 
	d="
M276.184082,267.822968 
	C276.001129,267.315887 276.120636,266.702545 276.552368,265.994110 
	C276.738556,266.504913 276.612549,267.110809 276.184082,267.822968 
z"/>
<path fill="#6F6CBE" opacity="1.000000" stroke="none" 
	d="
M275.062500,269.887939 
	C274.912720,269.370392 275.082520,268.742645 275.573822,268.013947 
	C275.724243,268.534576 275.553162,269.156128 275.062500,269.887939 
z"/>
<path fill="#C5C4EB" opacity="1.000000" stroke="none" 
	d="
M233.150208,205.628098 
	C233.013947,205.217117 233.121628,204.693329 233.493515,204.072571 
	C233.636520,204.488815 233.515335,205.002060 233.150208,205.628098 
z"/>
<path fill="#6B67BF" opacity="1.000000" stroke="none" 
	d="
M33.131790,241.718872 
	C32.867157,242.061279 32.697052,242.086380 32.269043,242.093750 
	C32.187134,241.460693 32.363129,240.845383 32.862698,240.178131 
	C33.199619,240.551315 33.212967,240.976440 33.131790,241.718872 
z"/>
<path fill="#C5C4EB" opacity="1.000000" stroke="none" 
	d="
M232.191162,207.693634 
	C232.032944,207.253387 232.143692,206.726013 232.515869,206.095383 
	C232.671570,206.530258 232.565857,207.068390 232.191162,207.693634 
z"/>
<path fill="#AEAEE3" opacity="1.000000" stroke="none" 
	d="
M106.129089,274.767822 
	C105.946800,274.302856 106.042107,273.721619 106.420746,273.025452 
	C106.604958,273.490906 106.505821,274.071228 106.129089,274.767822 
z"/>
<path fill="#AEAEE3" opacity="1.000000" stroke="none" 
	d="
M127.096634,230.701019 
	C126.929245,230.237061 127.034431,229.675568 127.425217,229.028198 
	C127.596947,229.496063 127.483078,230.049759 127.096634,230.701019 
z"/>
<path fill="#AEAEE3" opacity="1.000000" stroke="none" 
	d="
M118.081039,249.698334 
	C117.649178,249.510727 117.644859,249.293243 118.019684,249.014557 
	C118.192039,248.957779 118.502335,249.276062 118.502335,249.276062 
	C118.502335,249.276062 118.301781,249.672897 118.081039,249.698334 
z"/>
<path fill="#6F6CBE" opacity="1.000000" stroke="none" 
	d="
M252.063629,314.891754 
	C251.804901,314.633698 251.849487,314.261719 252.156799,313.749420 
	C252.402008,313.998657 252.384460,314.388275 252.063629,314.891754 
z"/>
<path fill="#6F6CBE" opacity="1.000000" stroke="none" 
	d="
M251.114273,316.931091 
	C250.853729,316.654510 250.918442,316.267487 251.251404,315.728149 
	C251.492950,315.990753 251.466248,316.405701 251.114273,316.931091 
z"/>
<path fill="#C5C4EB" opacity="1.000000" stroke="none" 
	d="
M236.141632,199.732056 
	C235.769119,199.526199 235.786285,199.295303 236.158371,199.020782 
	C236.336441,198.964188 236.578644,199.323364 236.578644,199.323364 
	C236.578644,199.323364 236.354446,199.693985 236.141632,199.732056 
z"/>
<path fill="#6F6CBE" opacity="1.000000" stroke="none" 
	d="
M250.105865,318.940430 
	C249.848297,318.664093 249.909851,318.263947 250.252975,317.716736 
	C250.498032,317.985352 250.461502,318.400940 250.105865,318.940430 
z"/>
<path fill="#6F6CBE" opacity="1.000000" stroke="none" 
	d="
M249.150116,320.805542 
	C248.895859,320.518280 248.949768,320.154846 249.274521,319.674927 
	C249.516342,319.948730 249.487320,320.339050 249.150116,320.805542 
z"/>
<path fill="#6F6CBE" opacity="1.000000" stroke="none" 
	d="
M285.149780,249.979034 
	C284.903870,249.705887 284.983643,249.300797 285.337341,248.729370 
	C285.566010,248.991058 285.520752,249.419067 285.149780,249.979034 
z"/>
<path fill="#6F6CBE" opacity="1.000000" stroke="none" 
	d="
M247.123276,324.792786 
	C246.836426,324.511658 246.863663,324.185852 247.132996,323.743042 
	C247.455414,323.871674 247.565369,324.112976 247.602966,324.365051 
	C247.620377,324.481934 247.496948,324.619812 247.123276,324.792786 
z"/>
<path fill="#C5C4EB" opacity="1.000000" stroke="none" 
	d="
M231.219742,208.930725 
	C231.094681,208.722687 231.196869,208.410538 231.544647,208.029327 
	C231.893204,208.335083 231.778778,208.623856 231.219742,208.930725 
z"/>
<path fill="#B1AFE4" opacity="1.000000" stroke="none" 
	d="
M174.161697,325.828186 
	C173.779037,325.593567 173.822021,325.282715 174.296051,324.906372 
	C174.734543,325.156097 174.687958,325.459778 174.161697,325.828186 
z"/>
<path fill="#B1AFE4" opacity="1.000000" stroke="none" 
	d="
M168.230560,337.889465 
	C168.044144,337.677185 168.099884,337.351685 168.391418,336.914795 
	C168.575714,337.127655 168.524216,337.451935 168.230560,337.889465 
z"/>
<path fill="#6F6CBE" opacity="1.000000" stroke="none" 
	d="
M286.123840,247.942490 
	C285.888458,247.691803 285.949097,247.298599 286.277771,246.750183 
	C286.503815,246.996643 286.461823,247.398300 286.123840,247.942490 
z"/>
<path fill="#AEAEE3" opacity="1.000000" stroke="none" 
	d="
M104.144905,278.801758 
	C103.726151,278.584503 103.745041,278.295166 104.187386,277.930542 
	C104.692139,278.143097 104.682709,278.434540 104.144905,278.801758 
z"/>
<path fill="#6F6CBE" opacity="1.000000" stroke="none" 
	d="
M287.146790,245.936401 
	C286.916199,245.666946 287.000214,245.276276 287.355225,244.732635 
	C287.571289,244.991501 287.516327,245.403351 287.146790,245.936401 
z"/>
<path fill="#6F6CBE" opacity="1.000000" stroke="none" 
	d="
M288.140076,243.944214 
	C287.917877,243.695358 287.988647,243.298904 288.330811,242.745087 
	C288.545807,242.990692 288.489441,243.393646 288.140076,243.944214 
z"/>
<path fill="#AAA7E1" opacity="1.000000" stroke="none" 
	d="
M175.892944,172.234528 
	C176.326508,172.444901 176.317108,172.711884 175.895782,173.052444 
	C175.694519,173.133209 175.435852,172.725555 175.435852,172.725555 
	C175.435852,172.725555 175.660675,172.298340 175.892944,172.234528 
z"/>
<path fill="#B1AFE4" opacity="1.000000" stroke="none" 
	d="
M164.115082,346.742584 
	C163.671890,346.534180 163.677856,346.285278 164.095703,345.972290 
	C164.288757,345.903168 164.567322,346.282288 164.567322,346.282288 
	C164.567322,346.282288 164.345383,346.697083 164.115082,346.742584 
z"/>
<path fill="#AEAEE3" opacity="1.000000" stroke="none" 
	d="
M128.108063,228.718109 
	C127.664513,228.499069 127.671806,228.256760 128.085373,227.958679 
	C128.275696,227.896683 128.567627,228.270676 128.567627,228.270676 
	C128.567627,228.270676 128.342987,228.688583 128.108063,228.718109 
z"/>
<path fill="#AEAEE3" opacity="1.000000" stroke="none" 
	d="
M126.141495,232.781464 
	C125.726326,232.550461 125.747620,232.277557 126.163483,231.936798 
	C126.426964,232.046326 126.512436,232.235397 126.537270,232.432129 
	C126.548599,232.521896 126.440239,232.626755 126.141495,232.781464 
z"/>
<path fill="#6F6CBE" opacity="1.000000" stroke="none" 
	d="
M278.095062,263.913147 
	C277.844360,263.645020 277.907593,263.262665 278.234192,262.732605 
	C278.468048,262.989563 278.438538,263.394257 278.095062,263.913147 
z"/>
<path fill="#6F6CBE" opacity="1.000000" stroke="none" 
	d="
M270.107483,279.748932 
	C269.834412,279.433655 269.883728,279.109344 270.185547,278.685730 
	C270.435333,278.970886 270.432617,279.355408 270.107483,279.748932 
z"/>
<path fill="#AEAEE3" opacity="1.000000" stroke="none" 
	d="
M105.111404,276.798096 
	C104.696877,276.539917 104.739670,276.245148 105.216751,275.900696 
	C105.413940,276.124207 105.386490,276.427704 105.111404,276.798096 
z"/>
<path fill="#AEAEE3" opacity="1.000000" stroke="none" 
	d="
M102.140625,282.859528 
	C101.944580,282.637878 101.993515,282.313660 102.283539,281.892822 
	C102.478287,282.116425 102.431946,282.436707 102.140625,282.859528 
z"/>
<path fill="#AEAEE3" opacity="1.000000" stroke="none" 
	d="
M101.173828,284.835022 
	C100.992134,284.615540 101.049942,284.298706 101.346466,283.888123 
	C101.527901,284.108795 101.470627,284.423218 101.173828,284.835022 
z"/>
<path fill="#6B69BA" opacity="1.000000" stroke="none" 
	d="
M81.885948,137.230743 
	C82.190079,137.547867 82.161453,137.866959 81.887711,138.289124 
	C81.549881,138.140137 81.425117,137.893784 81.378784,137.633453 
	C81.357513,137.514008 81.490280,137.367142 81.885948,137.230743 
z"/>
<path fill="#6F6CBE" opacity="1.000000" stroke="none" 
	d="
M272.104126,275.756561 
	C271.839233,275.448486 271.894623,275.130127 272.191376,274.708435 
	C272.429962,274.985504 272.427216,275.365875 272.104126,275.756561 
z"/>
<path fill="#6F6CBE" opacity="1.000000" stroke="none" 
	d="
M273.057434,273.850128 
	C272.777069,273.566467 272.823212,273.220886 273.119781,272.748169 
	C273.374786,273.010101 273.379364,273.399139 273.057434,273.850128 
z"/>
<path fill="#6B67BF" opacity="1.000000" stroke="none" 
	d="
M42.726425,218.988312 
	C42.973434,219.267151 42.886314,219.637360 42.545284,220.167694 
	C42.325012,219.911758 42.358658,219.495712 42.726425,218.988312 
z"/>
<path fill="#6F6CBE" opacity="1.000000" stroke="none" 
	d="
M265.087341,289.741211 
	C264.799164,289.436035 264.829224,289.128296 265.096375,288.727173 
	C265.420319,288.874695 265.538208,289.110413 265.579987,289.358917 
	C265.599091,289.472473 265.468384,289.611267 265.087341,289.741211 
z"/>
<path fill="#6F6CBE" opacity="1.000000" stroke="none" 
	d="
M274.047302,271.839935 
	C273.790283,271.559235 273.849121,271.204071 274.167664,270.725952 
	C274.406006,270.990479 274.384613,271.377991 274.047302,271.839935 
z"/>
<path fill="#6F6CBE" opacity="1.000000" stroke="none" 
	d="
M277.164520,265.826050 
	C276.883942,265.555817 276.911652,265.207611 277.190369,264.728668 
	C277.451874,264.981323 277.462341,265.364685 277.164520,265.826050 
z"/>
<path fill="#6F6CBE" opacity="1.000000" stroke="none" 
	d="
M253.100525,312.906494 
	C252.862503,312.613037 252.952225,312.216400 253.330963,311.683105 
	C253.556076,311.965424 253.492172,312.384369 253.100525,312.906494 
z"/>
<path fill="#6F6CBE" opacity="1.000000" stroke="none" 
	d="
M261.197937,296.895081 
	C261.013397,296.589874 261.098145,296.207397 261.489319,295.828308 
	C261.686218,296.160400 261.576691,296.489075 261.197937,296.895081 
z"/>
<path fill="#B0AEE2" opacity="1.000000" stroke="none" 
	d="
M33.488365,297.076294 
	C33.952579,296.873779 34.160500,297.067505 34.147633,297.657410 
	C33.716724,297.854340 33.485130,297.660675 33.488365,297.076294 
z"/>
<path fill="#6F6CBE" opacity="1.000000" stroke="none" 
	d="
M280.197937,259.850983 
	C279.947601,259.592865 279.989502,259.228333 280.290222,258.729858 
	C280.529419,258.978790 280.509796,259.361694 280.197937,259.850983 
z"/>
<path fill="#6F6CBE" opacity="1.000000" stroke="none" 
	d="
M282.180969,255.836685 
	C281.922424,255.582214 281.954102,255.220078 282.243805,254.722717 
	C282.491638,254.968002 282.481415,255.348511 282.180969,255.836685 
z"/>
<path fill="#6F6CBE" opacity="1.000000" stroke="none" 
	d="
M283.117798,253.931381 
	C282.875854,253.661896 282.950989,253.270248 283.294556,252.722580 
	C283.520325,252.980774 283.477631,253.394989 283.117798,253.931381 
z"/>
<path fill="#6F6CBE" opacity="1.000000" stroke="none" 
	d="
M258.132446,302.968506 
	C257.906982,302.719299 257.972687,302.305023 258.321564,301.728363 
	C258.544342,301.978455 258.483978,302.390930 258.132446,302.968506 
z"/>
<path fill="#6F6CBE" opacity="1.000000" stroke="none" 
	d="
M257.136902,304.922302 
	C256.917999,304.658142 256.999634,304.257019 257.366089,303.711548 
	C257.579742,303.973267 257.508575,304.379303 257.136902,304.922302 
z"/>
<path fill="#6F6CBE" opacity="1.000000" stroke="none" 
	d="
M256.127991,306.934265 
	C255.882095,306.661224 255.949051,306.263092 256.298798,305.720520 
	C256.534668,305.987122 256.487762,306.398163 256.127991,306.934265 
z"/>
<path fill="#6F6CBE" opacity="1.000000" stroke="none" 
	d="
M255.199478,308.846985 
	C254.953049,308.575684 255.009048,308.208435 255.328522,307.708649 
	C255.561951,307.967743 255.531921,308.359406 255.199478,308.846985 
z"/>
<path fill="#6F6CBE" opacity="1.000000" stroke="none" 
	d="
M284.131897,251.952393 
	C283.896851,251.688980 283.973755,251.289352 284.321777,250.728531 
	C284.543243,250.983612 284.493561,251.399887 284.131897,251.952393 
z"/>
</svg>